<?xml version="1.0" encoding="UTF-8"?><svg id="Layer_2" xmlns="http://www.w3.org/2000/svg" viewBox="0 0 541.33 541.33"><path d="M382.28,217.24c3.62-1.02,6.42-2.28,9.31-2.54,9.55-.83,19.13-1.24,28.69-1.99,1.27-.1,3.07-.89,3.59-1.9,2.59-4.95,6.85-6.85,11.91-6.14,9.31,1.31,18.6,2.91,27.78,4.96,6.09,1.36,9.91,5.83,10.65,11.97,1.14,9.41.93,18.85-2.31,27.96-1.87,5.24-5.32,8.54-11.07,9.08-1,.09-2.03.41-2.93.85-3.78,1.85-7.51,3.79-11.21,5.67,2.59.41,5.85.78,9.04,1.45,4.83,1.03,9.79,1.92,12.19,7.24.27.61,1.6.96,2.47,1.04,4.67.44,7.01,2.53,7.06,6.99.27,26.67.81,53.35.52,80.02-.13,11.97-2.1,23.85-8.76,34.4-1.51,2.39-2.15,5.33-3.56,7.8-.98,1.71-2.33,3.47-3.96,4.5-7.5,4.77-16.02,5.53-24.61,5.61-22.79.2-45.58-.15-68.35.53-23.36.7-46.67,2.58-70.03,3.48-8.76.34-17.62-.11-26.32-1.15-5.64-.67-7.01-3.72-6.04-9.57-3.03-.44-6.09-.77-9.1-1.36-2.03-.4-4.09-.97-5.96-1.85-4.93-2.33-6.82-5.82-5.39-11.22,1.67-6.33,1.75-13.53,9.47-18.32-5.58,1.1-9.79,1.94-14.15,2.8.63,4.98-1.51,7.84-6.24,9.41-3.8,1.27-7.53,3.05-10.91,5.2-1.84,1.16-3.19,3.41-4.23,5.45-2.5,4.87-4.15,5.74-9.97,4.26-.07,1.01-.13,1.97-.19,2.94-5.71-.37-11.41-.95-17.13-1.03-2.56-.04-5.14.91-7.71,1.41-1.76.34-3.52.94-5.29.98-17.97.34-35.94.54-53.91.9-3.99.08-6.9-1.22-9.94-4.02-20.17-18.55-37.37-39.63-53.56-61.62-6.64-9.02-10.33-18.65-9.26-30.09.52-5.5-.2-11.12-.52-16.68-.23-3.92,2.58-7.45,6.85-7.08,6.8.59,13.54,1.92,20.31,2.93,11.1,1.64,22.21,3.29,33.32,4.86.81.11,1.71-.38,2.56-.6.02-.43.04-.85.05-1.28-1.14-.28-2.27-.58-3.42-.83-13.87-3.03-27.79-5.84-41.6-9.12-16.32-3.89-24.18-15.45-26.95-31.17-2.92-16.59,1.06-31.09,12.9-43.42,5.64-5.88,12.4-7.92,20.2-7.84,23.82.27,47.64.91,71.46.59,13.59-.18,27.16-1.9,40.72-3.05,1.26-.11,2.69-.89,3.61-1.8,2.96-2.9,6.3-3.33,9.24-.71,4.09,3.64,7.71,7.81,11.44,11.84.96,1.04,1.58,2.4,2.67,4.1,1.8-12.12,11.04-12.26,19.69-13.68-14.49-4.1-29.39-7.15-40.09-19.11-6.06,11.06-16.85,15.11-27.78,18.64-2.45.79-5.55-.67-8.35-.68-29.51-.06-59.02.06-88.53-.13-5.65-.04-11.36-.93-16.94-1.98-8.55-1.62-12.77-7.07-11.91-15.64.59-5.92,1.78-11.83,3.28-17.6,1.57-6.03,6.13-9.24,12.19-9.52,11.52-.53,23.06-.61,34.59-.89,10.94-.27,21.88-.5,32.82-.91,2.33-.09,4.63-.87,7.74-1.5-1.54-3.86-2.65-7.38-4.39-10.57-.54-1-2.74-1.49-4.2-1.54-13.34-.43-26.7-.32-40-1.19-7.38-.49-14.74-2.22-21.96-4.01-5.09-1.26-7.99-5.25-8.46-10.48-.45-5.05-.38-10.14-.61-15.2-.04-.97-.27-1.99-.65-2.87-2.47-5.67,0-9.95,6.26-10.1,14.5-.35,29-.48,43.5-.67,32.21-.42,64.42-1.02,96.64-1.08,8.44-.02,16.88,2.42,25.31,2.36,9.55-.07,10.52,6.86,12.96,13.09.74,1.87,2.12,3.51,2.77,5.4.59,1.7.58,3.61.73,4.72,2.39-1.75,5.24-3.82,8.07-5.91.56-.41,1.33-.83,1.51-1.41,1.73-5.55,5.57-5.79,10.65-5.31,13.27,1.26,26.61,2.71,39.9,2.53,16.1-.22,21.41,8.09,25.59,20.26.31.91.73,1.78,1.74,2.5-.97-8.6-1.84-17.21-2.95-25.8-.78-6.04,1.44-9.19,7.47-9.62,3.13-.23,6.28-.18,9.42-.2,30.27-.25,60.55-.68,90.82-.6,8.94.02,17.98.96,26.77,2.58,3.27.6,7.32,3.75,8.66,6.78,4.59,10.41,6.32,21.5,3.97,32.88-.35,1.67-1.57,3.14-2.16,4.79-.7,1.93-1.48,3.92-1.63,5.93-.27,3.64-1.98,6.03-5.43,6.79-7.29,1.61-14.62,3.03-21.95,4.42-3.19.61-6.44.95-9.88,2.37,3.92,1.35,7.86,2.64,11.76,4.06,7.44,2.71,14.94,5.26,22.24,8.3,6.3,2.63,8.5,6.56,8.01,13.46-.28,4.01-.77,8.07-1.71,11.97-1.42,5.87-5.09,8.31-11.17,8.02-15.73-.73-31.22-3.52-44.85-11.33-8.37-4.8-15.07-12.54-22.43-19.05-1.19-1.05-1.95-2.6-3.04-4.1-6.55,13.59-9.82,28.33-26.61,32.47,9.25,1.87,16.38,5.79,19.25,13.55ZM97.98,366.95c6.49-2.15,10.29-.73,14.06,4.36,3.83,5.17,7.9,10.16,12,15.11.75.91,2.14,1.72,3.29,1.8,15.39,1,30.79,1.98,46.19,2.72,6.75.32,7.9-1.01,8.38-7.92.08-1.2.01-2.41.18-3.59,1.08-7.69,1.57-15.54,6.08-22.3,3.03-4.55,6.72-6.27,11.85-4.66,2.47.78,4.6,2.64,6.86,4.05,4.47,2.79,7.99,7.23,14.18,6.78,11.42-.82,22.87-1.18,34.28-1.97,1.25-.09,2.77-1.5,3.52-2.7,4.13-6.59,8.05-13.31,12.05-19.98,1.71-2.85,4.9-5.68,4.9-8.51-.02-6.35-1.59-12.71-2.57-19.05-.53-3.41-2.83-4.71-6.03-4.87-4.79-.24-9.61-.23-14.35-.84-4.87-.62-7.05,1.52-9.04,5.78-4.74,10.15-9.64,20.29-15.4,29.88-5.74,9.58-13.99,11.41-23.02,3.04-7.25-6.72-14.72-13.19-22.04-19.83-2.36-2.14-4.31-2.85-6.64.15-2.75,3.54-5.65,7.01-8.83,10.16-8.38,8.3-16.43,17.06-25.61,24.37-7.34,5.85-13.96,3.44-18.34-4.9-3.9-7.42-7.55-14.98-11.51-22.37-3.03-5.64-5.62-11.76-9.72-16.54-9.05-10.54-22.42-10.44-34.82-13.04.59,9.12,1.08,17.62,1.74,26.1.1,1.25.76,2.61,1.54,3.63,8.86,11.69,17.8,23.32,26.83,35.13ZM439.93,277.62c0,7.6.11,14.9-.02,22.2-.25,14.34.38,28.76-5.85,42.36-2.54,5.55-6.09,9.63-12.15,9.82-16.43.53-32.87.63-49.31.65-5.53,0-9.37-3.54-9.92-8.67-.65-6.08-4.47-6.92-8.9-7.11-11.07-.46-22.16-.82-33.23-.79-8.78.02-8.78.3-11.18,9.01-.28,1.01-.65,1.99-.95,3-1.86,6.32-1.47,7.62,4.94,8.54,13.02,1.87,26.1,3.7,39.21,4.46,8.96.52,15,4.36,19.34,11.67,3.34,5.63,1.08,12.11-4.95,14.33-1.67.62-3.49,1.08-5.25,1.13-8.07.22-16.15.36-24.22.37-25.59.04-51.18.02-77.08.02-.51,1.29-1.15,2.89-2,5.03,8.74.62,16.94,1.54,25.15,1.72,27.12.58,54.24,1.29,81.36,1.19,25.75-.09,51.5-1.19,77.25-1.72,3.65-.07,5.67-1.87,6.51-4.98,2.21-8.21,5.53-16.4,5.99-24.74,1.3-23.89,1.6-47.84,1.9-71.77.17-13.76-.18-13.77-13.69-15.73-.58-.08-1.19-.01-2.96-.01ZM120.51,215.98c-.02-.58-.03-1.17-.05-1.75-15.28,0-30.57.09-45.85-.06-4.32-.04-7.34,1.76-10.11,4.82-7.21,7.96-10.1,17.27-8.62,27.8,2.44,17.37,6.28,21.22,20.57,25.1,7.5,2.03,15.16,3.47,22.72,5.26,24.22,5.74,48.68,6.09,73.25,3.06,1.76-.22,3.4-1.46,5.09-2.23-1.17-1.41-2.08-3.27-3.56-4.16-9.58-5.73-20.23-7.95-31.19-9.12-12.5-1.33-25.14-2.09-37.42-4.55-9.62-1.93-10.76-7.48-5.66-14.11.78-1.01,1.99-2.01,3.19-2.32,4.88-1.26,9.84-3.21,14.77-3.18,17.52.09,35.03,1.08,52.55,1.32,6.99.09,14.03-.61,20.99-1.48,5.04-.63,7.75-4.39,8.72-9.12,2.21-10.79-6.31-19.48-17.48-18.73-20.62,1.38-41.27,2.32-61.91,3.44ZM65.88,105.11c0,4.24.06,7.65-.02,11.06-.07,2.93,1.31,4.41,4.17,4.76,6.52.81,13.02,2.14,19.56,2.43,12.42.55,24.88.23,37.28.94,3.36.19,7.69,1.92,9.61,4.44,3.34,4.39,5.52,9.8,7.53,15.04,3.97,10.31-1.2,16.3-10.91,18.13-7.9,1.49-16.02,2.28-24.06,2.48-13.61.34-27.24-.26-40.86-.04-11.75.19-12.76,1.64-13.41,13.49-.2,3.71,1.11,5.26,4.57,5.45,9.43.5,18.85,1.41,28.28,1.41,24.28,0,48.56-.3,72.84-.7,5.67-.09,7.98-2.27,7.28-7.82-.84-6.73-2.53-13.47-4.81-19.87-2.39-6.73-6.25-12.92-8.84-19.59-2.61-6.71.36-11.78,7.4-13.34,3.92-.87,7.96-1.52,11.97-1.69,11.68-.49,23.38-.55,35.06-1.11,2.04-.1,5.04-1.37,5.77-2.94,1.69-3.66,2.27-7.84,3.48-12.53H65.88ZM458.63,192.81c2.2-8.54,2.25-8.68-5.18-11.4-8.27-3.03-16.64-5.81-24.99-8.62-8.09-2.72-14.65-7.14-18.74-14.99-4.44-8.52-.14-16.19,7.54-17.97,6.95-1.61,14.17-2.06,21.27-2.96,5.63-.71,11.29-1.24,16.91-2.04,2.83-.4,4.64-2.04,4.31-5.22-.59-5.63-1.34-11.25-1.77-16.9-.33-4.29-2.89-5.23-6.59-5.46-31.74-1.97-63.49-2.36-95.26-.7-5.79.3-11.61.04-17.81.04.47,4.44.79,7.84,1.19,11.23,2.6,21.87,5.13,43.74,7.88,65.59.9,7.18,1.31,7.1,8.7,7.48,3.18.16,4.29-.96,4.45-3.97.37-6.72.5-13.5,1.59-20.12.51-3.09,2.3-6.98,4.76-8.54,5.66-3.59,12.24-4.34,19-2.69,8.44,2.06,13.57,8.48,19.24,14.19,6.13,6.17,12.05,12.4,20.53,15.65,10.7,4.11,21.72,6.29,32.99,7.39ZM277.05,270.44c2.44-2.86,4.35-5.16,6.32-7.39,5.03-5.71,14.92-4.88,17.5,2.1,1.03,2.79,2.33,5.48,3.43,8.25,1.66,4.16,3.14,8.4,4.95,12.5.43.96,2.09,2.27,2.81,2.07,6.02-1.67,12.02-3.47,17.89-5.61,3.15-1.15,4.23-3.63,3.48-7.23-2.2-10.54-3.96-21.18-6.13-31.73-1.32-6.41-2.81-12.81-4.71-19.07-1.23-4.06-3.95-7.06-8.77-7.09-6.89-.05-13.81-.4-20.67,0-2.08.12-4.44,1.92-5.98,3.59-3.64,3.94-6.51,8.64-10.34,12.35-5.62,5.44-11.69,6.18-17.57-.13-5.41-5.81-10.75-11.69-16.23-17.44-4.67-4.91-7.56-5.38-14.72-2.34,3.01,16.5-3.32,30.98-10.92,45.4-4.14,7.85-5.76,16.78-6.43,25.83,11.71-.51,13.4-2.11,16.89-12.48,2.03-6.05,4.33-12.25,7.82-17.52,7.44-11.24,12.19-10.3,20.77-2.58,6.78,6.11,13.57,12.21,20.6,18.53ZM223.3,323.85c.47-.69,1.02-1.34,1.38-2.09,3.38-7,6.71-14.04,10.1-21.04,2.23-4.61,5.62-7.84,11.02-7.83,7.49.01,15.04-.16,22.45.68,4.09.47,7.95,2.89,11.94,4.36,1.02.38,2.21.82,3.21.64,4.34-.81,7.28,1.02,8.23,5.02,2.32,9.72,4.54,19.49,6.05,29.35.29,1.9-2.74,4.38-4.4,6.46-.83,1.04-2.68,1.61-2.95,2.68-2.54,9.91-9.06,17.49-14.89,25.41-2.11,2.87-5.49,4.82-8.22,7.13h52.89c.24-.42.47-.84.71-1.25-1.43-.97-2.73-2.34-4.3-2.83-3.13-.98-6.47-1.26-9.61-2.21-10.14-3.08-14.18-10.49-11.71-20.78,1.42-5.92,2.45-11.94,3.99-17.83.4-1.53,1.83-2.98,3.14-4.03,1.21-.97,2.89-1.35,4.32-1.97-2.97-10.85-.87-15.04,9.39-19.62,4.46-1.99,8.83-4.17,13.24-6.27-5.89.74-11.52,2.03-17.17,3.22-5.64,1.19-9.52-1.52-12.4-6.01-1.28-2-2.4-4.15-3.31-6.34-1.93-4.62-3.68-9.32-5.66-14.38-1.09,1.33-1.95,2.17-2.57,3.17-3.14,5-7.84,6.69-13.17,5.1-3.46-1.04-6.75-3.2-9.64-5.46-4.51-3.54-8.62-7.6-13.93-12.35-1.03,7.11-2.2,13.09-2.68,19.12-.31,3.88-1.81,6.7-5.51,6.96-2.43.17-4.98-1.52-6.64-2.09-4.87,2.41-9.44,5.07-14.31,6.92-3.29,1.25-7.02,1.29-10.53,1.97-4.19.81-6.49-1.31-7.93-4.9-.42-1.04-.56-2.68-1.31-3.03-5.5-2.55-4.79-7.03-3.81-11.55,1.66-7.61,3.46-15.19,5.04-22.09-7.31,2.17-14.92,4.43-20.84,6.18,3.05,3.65,6.89,7.79,10.1,12.36,1.19,1.69,1.75,4.69,1.13,6.63-2.6,8.2-7.69,14.75-15.93,17.72-15.79,5.7-32.25,5.97-48.79,4.89-1.39-.09-2.78-.28-4.51-.46.59,3.66.89,6.65,1.58,9.55,2.71,11.38,5.54,22.73,8.36,34.08.08.33.58.56,1.14,1.07,1.55-1.23,3.23-2.25,4.53-3.63,8.71-9.27,17.32-18.63,26-27.92,4.75-5.08,9.81-9.33,17.61-6.82.84.27,2.36-.72,3.21-1.51,3.71-3.45,6.47-3.47,10.09.06.92.9,1.95,2.07,3.09,2.3,2.84.57,5.78.68,9.6,1.06,1.77-2.18,4.87-3.62,8.87-1.21,5.29,3.18,5.72,4.58,4.3,13.42ZM315.41,149.61l1.39-1.88c-1.15-4.24-2.1-8.54-3.49-12.69-2-5.99-6.26-9.18-12.69-9.53-14.8-.82-29.59-1.74-44.39-2.65-4.44-.27-5.95,2.51-6.87,6.17-2.64,10.47-9.72,15.68-20.17,16.86-3.12.35-6.23.87-9.35,1.17-12.77,1.22-13.96,2.13-17.67,14.73-.41,1.39-.43,3.59.39,4.54,3.26,3.8,6.37,8.22,10.56,10.59,5.64,3.18,12.1,5.2,18.43,6.81,25.01,6.39,50.73,6.55,76.29,7.97,2.21.12,4.68.06,6.61-.83,1.4-.64,2.29-2.72,2.95-4.35.12-.29-1.87-1.92-3.05-2.18-3.35-.74-6.78-1.23-10.2-1.56-9.69-.94-19.41-1.61-29.09-2.68-4.95-.55-8.89-2.78-11.23-7.72-4.86-10.29-.38-19.75,10.79-21.51,5.16-.81,10.44-1.09,15.68-1.21,8.36-.19,16.73-.05,25.1-.05ZM406.04,293.12c-.96-6.53-2.08-12.84-2.75-19.2-.47-4.44-1.25-9.16-.26-13.37,1.79-7.59,8.4-10.19,15.31-10.99,12.76-1.48,25.6-2.35,38.38-3.7,1.32-.14,3.4-1.69,3.56-2.81.83-5.89,1.37-11.85,1.46-17.8.02-1.26-2.08-3.36-3.53-3.7-7.51-1.76-15.13-3.07-22.84-4.56-.52,1.8-1,2.91-1.15,4.06-.71,5.53-3.68,9.37-9.18,10.11-13.47,1.81-27.01,3.19-40.53,4.66-.97.11-2.01-.44-3.01-.7-5.44-1.4-7.43-6.08-9.85-10.36-1.75-3.09-3.05-6.59-7.28-7.23-3.93-.6-7.84-1.33-12.93-2.2,3.38,9.31,6.74,17.44,9.25,25.83,1.86,6.19,5.48,7.95,11.55,7.76,3.55-.11,8.48.3,10.47,2.54,6.25,7.02,10.36,15.41,8.46,25.35-1.78,9.26-9.12,13.35-16.79,16.6-12.08,5.12-24.42,9.64-36.54,14.7-6.56,2.74-12.88,6.06-19.3,9.12-.04.52-.07,1.04-.11,1.56,1.33.37,2.7,1.12,3.99,1.02,1.58-.13,3.15-.86,4.65-1.53,14.35-6.35,28.68-12.66,44.08-16.23,11.35-2.64,22.58-5.76,34.88-8.94ZM316.8,203.9c4.24,2.02,8.3,4.67,12.75,5.84,3.63.96,6.19,2.4,7.1,5.85,2.08,7.91,4.39,15.83,5.65,23.89,1.86,11.9,2.77,23.95,4.31,35.91.93,7.29-2.22,12.43-7.81,16.49-1.55,1.13-3.26,2.04-4.89,3.06,1.24.11,2.3-.22,3.33-.63,7.48-2.95,15.02-5.79,22.43-8.91,5.48-2.31,10.98-4.7,16.1-7.69,1.62-.94,2.91-3.95,2.85-5.97-.18-6.74-3.58-9.88-10.18-10.38-1.2-.09-2.39-.17-3.59-.26-6.78-.48-11.57-3.63-13.88-10.21-3.8-10.84-8.02-21.55-11.35-32.54-2.54-8.38-3.78-9.72,5.55-15.3.2-.12.23-.52.36-.87-5.94-1.73-9.18-5.89-10.22-11.79-.81-4.57-1.4-9.17-2.01-13.77-1.24-9.36-2.42-18.73-3.62-28.1-2.41,9.5-5.41,12.46-15.19,13.16-7.62.55-15.29.27-22.93.6-5.46.24-10.9.88-16.35,1.33-.16.62-.31,1.23-.46,1.85,1.25.72,2.44,1.88,3.77,2.07,3.85.55,7.77.58,11.63,1.04,9.8,1.17,19.66,2.07,29.36,3.82,8.14,1.48,11.49,6.67,10.96,14.94-.57,8.93-4.56,13.65-13.69,16.55ZM367.4,327.58c2.42,1.5,4.67,4.09,6.85,4.04,15.26-.37,30.49-1.55,45.75-1.87,4.74-.1,5.95-2.08,6.09-6,.29-7.78.47-15.56.89-23.33.59-10.9-1.67-22.06,3.18-32.75-2.07.44-3.89.82-5.79,1.22,0,2.89-.25,5.74.05,8.54.85,7.87,2.05,15.63-.01,23.59-1.67,6.42-3.14,8.09-9.31,8.49-2.8,2.23-5.71,4.45-8.99,5.57-12.66,4.31-25.44,8.26-38.7,12.52ZM250.02,204.2c2.65-2.69,5.81-3.35,8.56-1.08,5.31,4.4,10.26,9.24,15.47,14,3.26-6.36,7.86-12.43,16.65-12.94-15.28-1.38-30.56-2.76-46.57-4.21,2.21,1.58,3.85,2.77,5.89,4.23ZM238.21,121.09c.42.42.85.85,1.27,1.27-4.05,4.11-8.11,8.21-10.58,10.72,5.17-.35,7.09-2.26,9.3-11.99Z"/><path d="M123.04,218.83c6.87.37,13.74.68,20.6,1.13,3.92.26,6.73,3.09,6.71,6.5-.02,3.68-3.04,6.72-7.08,6.56-9.85-.38-19.71-.84-29.53-1.63-3.48-.28-5.65-2.83-5.56-6.47.09-3.65,2.38-5.81,5.9-6.18,2.96-.31,5.97-.06,8.96-.06,0,.05,0,.1,0,.15Z"/><path d="M385.79,136.97c-7.76-1.28-15.67-2-23.25-3.99-7.41-1.95-11.35-9.36-6.86-16.53.85-1.36.86-3.38,1.92-4.44,1.57-1.57,3.81-3.73,5.62-3.61,16.69,1.17,33.35,2.7,49.99,4.38,2.18.22,4.71,1.45,6.24,3.03,5.85,6.07,3.23,14.63-6,17.25-6.93,1.96-14.41,2.02-21.66,2.81-1.92.21-3.89.03-5.83.03-.05.36-.1.71-.16,1.07Z"/><path d="M263.84,141.44c-1.78.14-3.57.45-5.35.37-3.56-.15-6.22-2.98-6.23-6.38-.01-3.35,2.64-6.29,6.09-6.48,3.43-.18,6.87-.22,10.3-.13,3.72.1,6.18,2.66,6.22,6.22.04,3.51-2.41,6.12-6.11,6.38-1.63.12-3.28.02-4.92.02Z"/></svg>