<?xml version="1.0" encoding="UTF-8"?><svg id="Layer_1" xmlns="http://www.w3.org/2000/svg" viewBox="0 0 488.88 471.66"><defs><style>.cls-1{fill:#231f20;}</style></defs><path class="cls-1" d="M8.41,70.62c12.13,58.93,24.26,117.87,36.39,176.8,2.79,13.57,23.29,10,23.57-3.19,1.14-53.7,2.15-107.67,9.89-160.91l-20.06,5.3c34.89,27.6,60.68,65.21,73.1,107.98,3.75,12.92,23.51,10.51,23.57-3.19.18-41.9.36-83.79.53-125.69l-20.49,8.49c17.13,19.29,31.8,40.48,46.15,61.88,15.44,23.02,30.81,46.1,46.21,69.15,4.65,6.97,16.46,8.58,20.72,0,3.32-6.68,5.91-13.59,7.35-20.92,1.25-6.35-1.81-12.95-8.38-14.76-5.9-1.62-13.5,1.99-14.76,8.38-1.04,5.28-2.53,10.36-4.94,15.18h20.72c-15.74-23.56-31.44-47.16-47.24-70.69s-30.81-44.86-48.87-65.2c-7.08-7.97-20.44-1.47-20.49,8.49-.18,41.9-.36,83.79-.53,125.69l23.57-3.19c-13.49-46.44-41.31-88.54-79.28-118.57-3.47-2.74-7.17-4.33-11.68-3.09-3.65,1-7.8,4.39-8.38,8.38-8.06,55.44-9.56,111.37-10.75,167.29l23.57-3.19c-12.13-58.93-24.26-117.87-36.39-176.8-1.31-6.35-8.81-10.02-14.76-8.38-6.6,1.81-9.69,8.39-8.38,14.76h0Z"/><path class="cls-1" d="M225.11,90.02c65.53-14.07,131.47-26.19,197.73-36.26,19.07-2.9,38.17-5.63,57.28-8.2,6.43-.86,9.93-9.12,8.38-14.76-1.91-6.94-8.31-9.25-14.76-8.38-66.43,8.93-132.58,19.84-198.34,32.79-18.93,3.72-37.82,7.62-56.68,11.67-6.34,1.36-10.03,8.77-8.38,14.76,1.8,6.55,8.4,9.75,14.76,8.38h0Z"/><path class="cls-1" d="M260.54,141.35c55.76-14.44,112.54-24.74,169.85-30.52,6.45-.65,12-5.05,12-12,0-5.98-5.51-12.66-12-12-59.45,6-118.39,16.41-176.23,31.38-14.94,3.87-8.61,27.02,6.38,23.14h0Z"/><path class="cls-1" d="M285.94,181.3c56.15-8.64,112.52-15.78,169.04-21.45,6.45-.65,12-5.05,12-12,0-5.99-5.51-12.65-12-12-58.66,5.88-117.16,13.34-175.42,22.31-6.41.99-9.96,9.03-8.38,14.76,1.88,6.85,8.33,9.37,14.76,8.38h0Z"/><path class="cls-1" d="M296.05,169.09c-13.76-12.07-21.17-29.27-29.09-46.32-8.11-17.45-17.2-35.32-32.64-47.46-5.09-4-12.01-4.97-16.97,0-4.16,4.16-5.12,12.94,0,16.97,14.58,11.47,22.11,27.98,30.06,45.14,8.16,17.62,16.8,35.61,31.68,48.65,4.87,4.27,12.18,4.79,16.97,0,4.36-4.36,4.89-12.68,0-16.97h0Z"/><path class="cls-1" d="M51.67,459.93c23.36-66.26,28.96-139.62,66.42-200.41h-20.72c26.03,61.63,32.02,129.53,37.98,195.45.79,8.7,9.69,15.41,18.06,10.36,12.45-7.52,19.43-19.7,24.52-32.92,5.41-14.08,9.42-28.74,14.34-43,10.48-30.38,22.12-60.37,35.01-89.8,7.48-17.07,15.36-33.97,23.59-50.69,2.86-5.81,1.57-12.98-4.31-16.42-5.29-3.1-13.54-1.53-16.42,4.31-28.21,57.29-52.01,116.66-71.36,177.51-3.66,11.5-7.62,24.34-17.49,30.3l18.06,10.36c-6.38-70.54-13.43-141.7-41.25-207.56-3.69-8.74-16.5-6.86-20.72,0-38.66,62.75-44.75,137.82-68.84,206.15-2.15,6.11,2.45,13.13,8.38,14.76,6.63,1.82,12.6-2.25,14.76-8.38h0Z"/><path class="cls-1" d="M284.62,223.67c-9.76,41.92-17.2,84.31-22.49,127.02-2.59,20.94-4.8,41.98-6.06,63.05-.63,10.52-1.01,21.21.05,31.71,1.13,11.27,5.74,21.24,17.73,24.1,10.16,2.42,21.69,2.08,32.06,2.1s21.73-.46,32.57-1.03c20.9-1.1,42.11-1.94,62.56-6.8,9.3-2.21,19.17-5.1,27.07-10.64,8.55-5.99,14.2-14.37,16.97-24.43,5.39-19.53,3.71-41.53,2.83-61.52-1.05-23.84-1.65-47.36,1.18-71.11s8.08-46.66,13.17-69.73c1.39-6.32-1.91-12.98-8.38-14.76-6.01-1.65-13.36,2.02-14.76,8.38-8.63,39.14-16.95,78.62-16.27,118.91.33,19.52,2.09,39.01,1.65,58.55-.19,8.33-.34,16.9-2.55,24.91-1.85,6.71-5.78,10.79-12.14,13.68-15.87,7.19-35.01,8.38-52.15,9.48-19.82,1.28-39.77,2.55-59.64,1.99-4.6-.13-9.2-.36-13.78-.74.2.02-5.62-.31-5.6-.79,0,.18,1.75.75,1.69.94-.15.42-.15-.69-.13-1.13.11-2.27-.59-8.24-.65-11.72-.09-4.85.01-9.7.22-14.54.86-19.76,2.94-39.53,5.21-59.18,5.06-43.84,12.79-87.35,22.79-130.33,1.47-6.31-1.96-13-8.38-14.76-6.07-1.67-13.29,2.04-14.76,8.38h0Z"/></svg>