<?xml version="1.0" encoding="UTF-8"?><svg id="Layer_1" xmlns="http://www.w3.org/2000/svg" viewBox="0 0 465.72 354.86"><defs><style>.cls-1{fill:#231f20;}</style></defs><path class="cls-1" d="M33.53,73.79c100.12,1.44,200.27.41,300.33-3.15,28.26-1,56.51-2.21,84.75-3.61,17.48-.87,34.34-14.79,33.5-33.5-.78-17.41-14.75-34.43-33.5-33.5-100.01,4.95-200.13,7.44-300.26,7.39-28.28-.01-56.55-.23-84.82-.64C16,6.54-.77,22.38.03,40.29s14.72,33.23,33.5,33.5h0Z"/><path class="cls-1" d="M45.52,218.07c99.54,9.96,199.96,10.71,299.63,2.08,30.35-2.63,60.58-6.24,90.75-10.41,7.69-1.06,16.31-9.05,20.02-15.4,4.2-7.18,5.98-17.76,3.38-25.81s-7.65-15.93-15.4-20.02l-8-3.38c-5.94-1.6-11.87-1.6-17.81,0-1.94.27-3.89.53-5.83.8l8.91-1.2c-97.2,13.05-195.55,17.28-293.51,12.48-27.43-1.34-54.81-3.41-82.13-6.14-8.04-.8-18.19,4.32-23.69,9.81-5.81,5.81-10.19,15.34-9.81,23.69s3.23,17.65,9.81,23.69c6.91,6.34,14.38,8.88,23.69,9.81h0Z"/><path class="cls-1" d="M41.85,346.42c100.85-12.09,202.67-7.59,303.64.66,28.92,2.36,57.82,5.03,86.71,7.7,8.08.75,18.15-4.27,23.69-9.81,5.81-5.81,10.19-15.34,9.81-23.69s-3.23-17.65-9.81-23.69c-6.88-6.32-14.39-8.95-23.69-9.81-100.96-9.34-202.33-18.7-303.84-15-28.91,1.05-57.78,3.2-86.51,6.64-9.19,1.1-16.88,3.01-23.69,9.81-5.81,5.81-10.19,15.34-9.81,23.69s3.23,17.65,9.81,23.69c6.09,5.59,15.08,10.84,23.69,9.81h0Z"/></svg>