<?xml version="1.0" encoding="UTF-8"?><svg id="Layer_8" xmlns="http://www.w3.org/2000/svg" viewBox="0 0 488.88 471.66"><defs><style>.cls-1{fill:#231f20;}</style></defs><path class="cls-1" d="M164.74,23.81c-16.71-2.63-33.44-5.16-50.19-7.51-17.07-2.4-34.32-4.74-51.59-3.66-14.23.89-33.08,2.77-40.47,17.09-8.04,15.59,3.34,32.78,15.76,41.87,25.73,18.82,60.59,11.52,90.11,11.94,6.98.1,13.93.54,20.72,2.25,5.34,1.34,9.02,2.85,12.16,6.44.12.14.56.69.57.7-.34-1,.58,2.77.5,1.71-.08-1.12-.59,1.86-.14.82-.4.95-1.24,2.26-2.02,3.12-3.94,4.33-10.93,5.6-16.39,6.9-35.14,8.39-71.9,5.24-107.54,2.48l10.79,18.81c.79-1.44,1.59-2.88,2.38-4.32,7.78-14.1-13.81-26.72-21.59-12.62-.79,1.44-1.59,2.88-2.38,4.32-4.82,8.74,1.38,18.08,10.79,18.81,32.56,2.52,65.1,4.61,97.56-.19,15.02-2.22,32.97-5.15,44.04-16.51,11.67-11.98,12.34-30.01.66-42.18-10.14-10.56-25.28-13.67-39.24-14.98-15.49-1.46-31.04.28-46.55.45-13.27.15-27.76-.69-38.76-7.46-2.28-1.4-3.45-2.32-5.45-4.46-1.38-1.47-2.59-3.76-3.28-5.56.04.11-.43-2.18-.32-1.48.23,1.51-1.6.76.27.28-1.52.38,1.62-.66.21-.08,1.48-.6,3.04-1.03,4.59-1.4,16.96-4.03,35.53-1.9,52.6.29,18.55,2.38,37.05,5.32,55.53,8.24,6.66,1.05,13.45-1.71,15.38-8.73,1.63-5.94-2.02-14.32-8.73-15.38h0Z"/><path class="cls-1" d="M305.45,24.32c-17.51-2.53-34.83-2.29-52.17,1.49-14.82,3.23-30.5,8.96-41.32,20.02s-15.93,27.49-10.5,42.01c6.33,16.92,22.97,22.02,38.96,26.34,33.29,8.98,68.02,10.76,102.1,5.92,15.76-2.24,30.8-7.72,39.8-21.67,4.11-6.36,6.43-13.99,7.58-21.42,1.29-8.29,2.3-17.25-.6-25.34-6.66-18.55-27.83-21.93-44.88-24.84-19.94-3.4-40.11-4.7-60.31-3.58-6.74.37-12.5,5.48-12.5,12.5,0,6.48,5.73,12.87,12.5,12.5,14.61-.81,29.23-.42,43.78,1.24,5.83.67,11.63,1.68,17.38,2.84,3.34.67,6.68,1.4,9.99,2.23,2.71.68,5.5,1.43,7.06,2.24,3.23,1.67,3.59,2.16,3.84,5.84.4,5.87-.66,11.32-2.47,17-3.14,9.82-10.71,13.18-20.75,15.19-25.2,5.05-52.68,4.09-77.84-.63-6.37-1.2-12.69-2.65-18.94-4.36-5.79-1.59-12.95-2.93-17.84-6.22.14.09-1.57-1.14-1.23-.86-2.29-1.87.2.83-1.36-1.59-.61-.95-1.11-2.03-1.42-4.4.3,2.27.09-2.07.08-2.03.11-3.81-.58,1.66.26-2.09.67-3.01.93-3.62,2.33-5.85,5.82-9.28,18.62-13.35,29.38-16.03,13.74-3.43,28.4-4.35,42.44-2.32,6.67.96,13.43-1.65,15.38-8.73,1.61-5.87-2.01-14.41-8.73-15.38h0Z"/><path class="cls-1" d="M31.01,158.84c-2.03,16.21-.67,33.38,5.61,48.56,7.33,17.72,20.26,30.26,38.12,37.25,18.35,7.18,39.97,9.25,59.5,7.39,19.94-1.9,38.08-9.72,44.83-30.05,3.6-10.83,4.52-23.21,4.92-34.55.44-12.63-.74-25.2-2.93-37.63-1.17-6.65-9.31-10.4-15.38-8.73-7.02,1.93-9.91,8.7-8.73,15.38,2.86,16.22,3.05,33.31.19,49.54-.64,3.63-1.24,7.68-2.81,11.04-.39.83-1.54,2.62-1.73,2.85-.56.69-1.78,1.73-2.13,1.98-2.61,1.87-3.98,2.38-6.66,3.21-1.63.5-3.28.91-4.95,1.25-.72.15-1.44.29-2.16.41-1.6.27-.77.13-1.74.23-16,1.67-32.64.32-48.02-4.48-13.06-4.07-21.1-11.05-26.61-22.81-1.9-4.05-4.24-13.33-4.71-17.74-.81-7.69-.58-15.44.39-23.11.84-6.71-6.35-12.5-12.5-12.5-7.46,0-11.66,5.77-12.5,12.5h0Z"/><path class="cls-1" d="M231.6,234.23c4.85-17.26,6.57-35.15,10.42-52.62,1.75-7.96,3.84-16.09,7.33-23.49,1.15-2.44,2.88-5.87,4.2-6.86.45-.34,1.05-.37,1.61-.37,1.06-.02,3.3.55,5.06,1.23,7.81,3.02,15.02,8.77,22.08,13.22,8.39,5.29,16.78,10.59,25.17,15.88,8.67,5.47,17.34,10.94,26.01,16.41,9.04,5.7,18.88,12.35,29.04,4.68,4.32-3.26,6.74-8.16,9.36-12.77,2.77-4.86,5.55-9.73,8.32-14.59,5.71-10.02,11.42-20.03,17.13-30.05,7.98-14-13.61-26.61-21.59-12.62-5.06,8.87-10.11,17.74-15.17,26.61-2.45,4.29-4.89,8.58-7.34,12.88-1.14,2-2.28,4.01-3.43,6.01-.65,1.14-1.3,2.29-1.96,3.43-.27.48-.54.96-.83,1.43-.46.7-.45.75.03.16l3.92-.62c4.23.2,5.12-.26,2.67-1.37-.58-.63-1.79-1.13-2.52-1.59-1.96-1.24-3.92-2.47-5.87-3.71-4.47-2.82-8.95-5.65-13.42-8.47-8.67-5.47-17.34-10.94-26.01-16.41s-17.04-10.95-25.69-16.2c-7.81-4.74-17.09-9.13-26.47-8.49-21.25,1.44-29.17,23.75-33.9,41.38-5.32,19.83-6.71,40.47-12.27,60.26-4.36,15.51,19.76,22.14,24.11,6.65h0Z"/><path class="cls-1" d="M34.27,287.29c2.65,26.93,4.05,53.96,4.18,81.03.03,5.25,3.84,10.89,9.18,12.05,45.34,9.92,88.97-8.04,127.72-30.22,8.22-4.7,16.77-10.42,20.94-19.25,5.05-10.7,2.45-22.72-5.79-31.05-7.91-8-18.97-10.39-29.6-12.43-11.48-2.21-23.01-4.18-34.57-5.93-26.16-3.95-52.47-6.82-78.87-8.51-6.74-.43-12.5,6.05-12.5,12.5,0,7.13,5.74,12.07,12.5,12.5,19.77,1.27,39.51,3.14,59.15,5.75s38.04,5.19,56.55,9.62c3.37.81,6.64,1.67,9.43,3.79.06.04.91,1.21,1.32,1.87-.33-.53.33,1.94.29-.21.03,1.65-1.23,2.66-3.17,4.41-1.75,1.58-5.36,3.69-8.31,5.37-15.5,8.87-31.42,17.2-48.43,22.79-19.31,6.34-39.96,9.3-60.02,4.91l9.18,12.05c-.13-27.06-1.53-54.09-4.18-81.03-.66-6.72-5.27-12.5-12.5-12.5-6.25,0-13.17,5.74-12.5,12.5h0Z"/><path class="cls-1" d="M389.94,275.28c-30.79-11.46-63.56-23.17-96.97-20.66-15.53,1.17-31.9,4.51-44.02,14.93-12.07,10.37-15.1,27.72-6.61,41.36,9.19,14.76,25.48,19.6,41.8,21.47,16.75,1.92,33.74,1.88,50.53.43,8.23-.71,16.51-1.67,24.78-1.16,2.73.17,6.67.73,8.67,1.5.37.14,2.21,1.08,3.03,1.67,1.05.76.6.43.29.24,1.45.88.24,1.16.54.28.16-.47,0-1.57.13-2.17.19-.95,1.61-1.14.47-.78-3.18,1.01-4.18,2.02-8.24,3.09-7.7,2.03-15.51,2.94-23.44,3.5-39.08,2.76-78.3,4.15-117.42,6.2-6.74.35-12.5,5.49-12.5,12.5,0,6.5,5.72,12.85,12.5,12.5,34.74-1.81,69.49-3.62,104.23-5.44,16.44-.86,34.08-1.24,49.66-7.12,7.49-2.83,14.4-7.1,17.67-14.77,3.58-8.41,1.31-17.21-4.5-23.96-10.94-12.72-30.37-13.1-45.75-11.97-16.93,1.25-33.59,2.48-50.58,1.34-6.99-.47-13.87-1.03-20.58-3.21-4.88-1.58-9.31-4.97-10.67-8.38-.18-.46-.81-3.43-.62-2.33,0-.02.21-2.11-.03-1.17-.26,1,.3-1.07.28-.99.76-2.6.42-1.02.19-.57.28-.55.61-1.15.99-1.64.88-1.14.18-.22.01-.02.56-.66,1.21-1.28,1.84-1.86,1.16-1.06,3.41-2.41,5.94-3.65,1.05-.52,5.03-1.87,7.58-2.52,35.03-8.87,71.69,5.38,104.15,17.46,6.33,2.36,13.7-2.63,15.38-8.73,1.92-7-2.38-13.01-8.73-15.38h0Z"/></svg>