<?xml version="1.0" encoding="UTF-8"?><svg id="Layer_6" xmlns="http://www.w3.org/2000/svg" viewBox="0 0 492.23 473.89"><defs><style>.cls-1{fill:#231f20;}</style></defs><path class="cls-1" d="M13.84,41.83c56.56.12,112.98-4.23,168.91-12.61,6.68-1,10.37-9.43,8.73-15.38-1.97-7.15-8.67-9.74-15.38-8.73C122.42,13.16,68.12,16.95,13.84,16.83c-16.09-.03-16.11,24.97,0,25h0Z"/><path class="cls-1" d="M61.18,37.03c19.4,31.15,22.05,69.44,37.57,102.4,2.88,6.11,11.65,7.68,17.1,4.48,6.26-3.66,7.37-10.97,4.48-17.1-15.58-33.09-17.95-70.91-37.57-102.4-8.49-13.63-30.13-1.09-21.59,12.62h0Z"/><path class="cls-1" d="M111.71,65.51c28.8,31.5,52.69,67.04,71.34,105.42,2.95,6.07,11.59,7.71,17.1,4.48,6.2-3.63,7.45-11.01,4.48-17.1-19.56-40.25-45.06-77.45-75.25-110.48-4.56-4.98-13.05-4.62-17.68,0-4.96,4.96-4.57,12.68,0,17.68h0Z"/><path class="cls-1" d="M159.12,107.34l191.46-.35c16.08-.03,16.11-25.03,0-25l-191.46.35c-16.08.03-16.11,25.03,0,25h0Z"/><path class="cls-1" d="M298.78,45.15c28.84,30.16,51.94,65.17,68.74,103.36,2.72,6.18,11.75,7.61,17.1,4.48,6.37-3.73,7.21-10.9,4.48-17.1-17.63-40.07-42.41-76.78-72.65-108.42-11.14-11.65-28.8,6.04-17.68,17.68h0Z"/><path class="cls-1" d="M400.25,78.92c3.99,23.01,11.36,45.12,21.44,66.17,2.91,6.09,11.62,7.69,17.1,4.48,6.23-3.64,7.41-10.99,4.48-17.1-9.13-19.07-15.31-39.38-18.92-60.2-1.15-6.66-9.32-10.39-15.38-8.73-7.03,1.93-9.89,8.7-8.73,15.38h0Z"/><path class="cls-1" d="M386.62,49.77c16.09,0,16.11-25,0-25s-16.11,25,0,25h0Z"/><path class="cls-1" d="M39.29,260.5c9.28-31.53,20.45-62.5,33.74-92.56-6.54.84-13.09,1.69-19.63,2.53,12.59,12.45,19.92,29.04,26.28,45.37,3.56,9.14,7.03,18.32,10.89,27.34s9.07,19.94,20.1,21.74c7.36,1.2,12.51-1.91,15.38-8.73,11.95-28.42,22.93-57.24,32.91-86.41,2.19-6.39-2.5-13.67-8.73-15.38-6.86-1.88-13.18,2.32-15.38,8.73-9.98,29.17-20.95,57.99-32.91,86.41l15.38-8.73c-3.22-.52.88.29.33.91,0,0-2.71-4.9-2.94-5.4-1.71-3.69-3.08-7.02-4.59-10.83-3.33-8.36-6.42-16.82-9.85-25.14-7.19-17.41-15.63-34.16-29.19-47.57-5.19-5.13-16.3-5.02-19.63,2.53-14.16,32.06-26.36,64.91-36.26,98.53-4.55,15.47,19.57,22.07,24.11,6.65h0Z"/><path class="cls-1" d="M314.47,168.07c-10.95-10.52-23.46-19.61-37.07-26.38-7.29-3.62-14.89-6.76-22.65-9.22s-15.98-5.05-23.95-3.91c-18.9,2.69-21.39,22.5-23.44,37.8-1.2,8.9-2.39,17.8-3.59,26.7-.21,1.56-.38,3.13-.66,4.68-.15.82-.11,3.06.27,1.29.23-1.07,1.57-.57-.46-.41-1.78.14-3.6.75-5.37,1.01-8.55,1.25-18.5-.84-26.57,2.28-9.09,3.51-12.41,12.71-13.99,21.62s-2.63,18.58.72,26.86c3.56,8.81,11.27,12.73,19.98,15.2,32.68,9.28,68.05,9.48,100.91.95,9.74-2.53,23.1-5.02,26.25-16.19,1.3-4.6.43-9.41,0-14.06s-.77-9.12-1.3-13.66c-.66-5.67-2.48-10.65-7.25-14.11s-10.02-3.79-15.51-4.52c-10.06-1.34-20.14-1.95-30.29-1.76,1.11,8.18,2.22,16.37,3.32,24.55,5.96-2.07,11.33-2.37,16.44-1.19,5.66,1.31,10.64,3.75,14.11,6.77,5.4,4.7,6.89,8.73,9.73,14.44,4.66,9.35,15.82,16.92,25.85,10.18,5.6-3.76,8.04-11.02,4.48-17.1-3.25-5.55-11.47-8.27-17.1-4.48,4.55-1.96,7.78-1.55,9.69,1.21-.5-.78-.95-1.58-1.34-2.42,1.07,2.11-1.77-4.16-2.09-4.79-1.66-3.28-3.85-6.24-6.16-9.08-4.45-5.48-10.29-10.18-16.54-13.46-13.33-7.01-29.34-9.19-43.73-4.18-5.85,2.04-9.91,7.34-8.95,13.71.9,5.99,5.94,10.96,12.28,10.84,7.02-.13,14.03.06,21.02.69,2.7.24,5.39.53,8.07.94l1.89.3c3.26.9,2.35-.58-2.71-4.46-.1-1.15-.1-1.11.01.12.09.95.18,1.91.27,2.86.33,3.5.65,7,.98,10.5.13,1.43-.04,3.44.45,4.77l.1,1.37c5.63-5.15,6.53-6.9,2.7-5.25-6.47,1.49-12.74,3.84-19.28,5.22-25.03,5.29-51.41,4.58-76.15-1.87-1.93-.5-6.41-1.02-8-2.35.31.26.78.44.89.81-.87-2.87-.16-7.59.3-10.51.18-1.15,1.08-8.11,2.17-8.52l-1.13,1.86c-3.36,1.26-4.06,1.83-2.12,1.72,1.16.43,3.35.06,4.58.05,3.11-.02,6.22-.18,9.32-.46,7.2-.66,16.07-1.14,22.53-4.85,13.25-7.6,12.22-25.73,14-38.98.88-6.59,1.61-13.21,2.66-19.78.26-1.62.61-3.54,1.08-5.27-.02.06,1.47-3.93.56-2.02.37-.76.8-1.5,1.28-2.2-.12.39-.34.68-.69.87,0,0-1.21.76-1.21.4s4.46.72,4.63.76c3.18.76,6.33,1.63,9.44,2.62,5.74,1.82,11.29,4.02,16.68,6.7,11.81,5.87,22.5,13.34,32.01,22.47,11.61,11.15,29.31-6.51,17.68-17.68h0Z"/><path class="cls-1" d="M455.41,153.84l-100.33,1.07c-8.28.09-16.56.06-24.84.27s-16.78,2.83-20.88,10.93c-3.2,6.32-4.54,15.09-4.16,22.13.43,7.93,3.25,15.39,9.49,20.53,11.91,9.81,29.27,7.56,43.56,6.38,16.41-1.36,32.71-3.8,49.11-5.26,7.99-.71,16-1.19,24.02-1.17,3.84,0,7.68.13,11.52.38,1.79.12,3.99.71,5.75.49.04,0,2.87-.76.8.12,1.34.4,1.06.02-.83-1.15-.91-.29-1.46-.82-1.66-1.6,0,0,.53,2.02.73,2.98.14.64.67,3.88.59,3.14.29,2.61.38,6.72.09,8.47,0-.03-.58,2.3-.88,3.09-.13.33-.33.88-.58,1.16-1.23,1.37-2.29,2.03-4.17,2.56-5.5,1.56-14.36.08-20.97-.57-9.21-.91-18.42-1.82-27.63-2.73-19.08-1.88-38.16-3.77-57.24-5.65-6.73-.66-12.5,6.22-12.5,12.5,0,7.31,5.75,11.83,12.5,12.5,16.45,1.62,32.9,3.25,49.34,4.87,16.06,1.59,32.28,4.03,48.41,4.61s30.45-5.82,36.47-21.32c2.45-6.29,2.83-13.56,2.08-20.22-.83-7.34-1.87-15.72-7.26-21.28-6.2-6.4-15.69-6.53-24-7.04-7.99-.49-16.01-.39-24,.06-16.43.93-32.72,3.3-49.08,5.03-8.02.85-16.05,1.55-24.11,1.84-3.16.12-6.35.25-9.5-.01-1.43-.12-3.51-.67-4.1-.9-.78-.3-.89-.69-.98-2.58-.14-3.26.35-4.92.92-7.96.39-2.07.95-1.93-.76-.58-1.5,1.18-1.36.92-.82,1.25,1.01.61,4.48-.06,5.7-.07l6.95-.07,113.25-1.21c16.08-.17,16.12-25.17,0-25h0Z"/></svg>