<?xml version="1.0" encoding="UTF-8"?><svg id="Layer_7" xmlns="http://www.w3.org/2000/svg" viewBox="0 0 488.88 471.66"><defs><style>.cls-1{fill:#231f20;}</style></defs><path class="cls-1" d="M14.09,37.16c35.33,21.13,70.66,42.26,105.99,63.39,4.28,2.56,10.03,2.09,13.88-.98,4.28-3.41,5.21-7.91,4.48-13.14-3.28-23.39-9.27-46.26-17.87-68.26-2.46-6.28-8.38-10.65-15.38-8.73-5.99,1.65-11.2,9.05-8.73,15.38,8.6,22,14.59,44.87,17.87,68.26l18.36-14.12C97.37,57.83,62.04,36.7,26.71,15.57,12.87,7.3.28,28.9,14.09,37.16h0Z"/><path class="cls-1" d="M158,34.03c16.09,0,16.11-25,0-25s-16.11,25,0,25h0Z"/><path class="cls-1" d="M168.87,56.89c11.59,10.51,23.31,20.87,35.18,31.07,5.93,5.1,11.9,10.16,17.9,15.17s11.7,10.23,19.44,11.74c6.62,1.3,13.49-1.88,15.38-8.73,1.69-6.14-2.07-14.07-8.73-15.38-4.68-.92-9.03-5.82-12.91-9.09-5.49-4.62-10.94-9.27-16.37-13.95-10.86-9.37-21.59-18.88-32.21-28.52-5-4.53-12.74-4.94-17.68,0-4.6,4.6-5.02,13.13,0,17.68h0Z"/><path class="cls-1" d="M228.87,36.37c22.34,18.69,44.67,37.39,67.01,56.08,5.08,4.25,10.15,8.5,15.23,12.75,5.49,4.59,10.84,9.94,17.59,12.58,12.47,4.87,28.34-1.74,40.13-6.42,12.19-4.84,24.1-10.69,34.83-18.3,6.29-4.46,10.83-10.06,10.46-18.19-.35-7.7-5.65-14.7-10.58-20.22-16.72-18.72-44.51-26.77-68.04-32.53-30.09-7.36-61.12-10.14-91.9-12.91-6.73-.61-12.5,6.18-12.5,12.5,0,7.27,5.75,11.89,12.5,12.5,23.05,2.07,46.15,4.13,68.91,8.48,20.61,3.94,42.58,9.05,60.7,19.58,3.75,2.18,6.93,4.35,9.98,7.28,1.41,1.36,3.11,3.16,4.08,4.47.61.82,1.05,1.84,1.69,2.61.97,2.47,1.42,1.87,1.36-1.81-.57-1.68-.33-2.8.72-3.35-.61-.38-11.85,7.46-13.16,8.19-4.57,2.54-9.27,4.93-14.09,6.95s-9.67,3.69-14.62,5.17c-2.48.74-4.97,1.43-7.48,2.04s-3.04,1.15-4.53.46c-3.7-1.72-7.88-6.34-11.42-9.3-4.82-4.04-9.64-8.07-14.47-12.11l-64.72-54.17c-5.17-4.33-12.61-5.07-17.68,0-4.45,4.45-5.2,13.32,0,17.68h0Z"/><path class="cls-1" d="M52.58,138.97c9.47,14.47,19.19,28.78,29.2,42.88,5.19,7.31,10.44,14.58,15.79,21.78,5.35,7.21,10.67,13.63,19.98,15.47,8.61,1.7,17.81,1.42,26.55,1.77s17.86.65,26.79.87c18.19.45,36.39.6,54.59.49,16.08-.1,16.12-25.1,0-25-33.31.2-66.74-.17-99.99-2.21-2.63-.16-2.79,0-4.28-1.41-1.97-1.86-3.67-4.77-5.47-7.23-4.74-6.46-9.41-12.95-14.03-19.49-9.42-13.34-18.59-26.86-27.53-40.53-3.69-5.64-11.07-8.01-17.1-4.48-5.61,3.28-8.2,11.43-4.48,17.1h0Z"/><path class="cls-1" d="M60.01,137.25c33.44.42,66.86-.9,100.16-3.95,6.72-.62,12.5-5.3,12.5-12.5,0-6.28-5.74-13.12-12.5-12.5-33.3,3.05-66.72,4.37-100.16,3.95-16.09-.2-16.1,24.8,0,25h0Z"/><path class="cls-1" d="M90.43,185.97c31.95.54,63.9-.49,95.74-3.09,6.73-.55,12.5-5.35,12.5-12.5,0-6.34-5.73-13.05-12.5-12.5-31.85,2.6-63.79,3.64-95.74,3.09-16.09-.27-16.1,24.73,0,25h0Z"/><path class="cls-1" d="M219.74,128.28c-2.69,13.59,1.3,25.78,7.51,37.81,4.96,9.61,10.57,18.9,17.43,27.29s15.43,15.04,25.53,19.08c11.64,4.65,24.3,4.36,36.44,2.14s23.98-6.04,34.58-11.29c13.99-6.93,16.47-21.91,10.27-35.2-9.38-20.1-29.56-35.36-49.5-43.88-24.35-10.41-51.6-12.48-77.2-5.53-15.51,4.21-8.93,28.34,6.65,24.11,31.34-8.51,67.4.11,89.66,24.83,2.44,2.71,4.55,5.57,6.43,8.69.92,1.54,1.51,3.04,2.3,4.57.22.42.38,1.46.27,1.5-.05.02.72-2.32.93-2.03.23.32-7.57,3.28-8.59,3.65-4.53,1.63-9.09,3.18-13.73,4.45-7.87,2.16-16.39,3.85-24.52,2.19-7.48-1.53-12.65-5-17.91-10.47-5.74-5.97-10.15-13.37-14.37-20.98-3.84-6.92-9.71-16.03-8.07-24.28,1.31-6.62-1.89-13.5-8.73-15.38-6.15-1.69-14.06,2.08-15.38,8.73h0Z"/><path class="cls-1" d="M439.43,99.03c-22.28-2.6-44.59,1.15-65.14,9.95-9.4,4.03-22.41,9.03-27.92,18.22-6.3,10.53-.81,22.86,9.58,28,9.4,4.65,20.88,4.94,31.19,5.13,9.46.17,18.94-.3,28.4.15,8.47.4,17.23,1.58,24.78,5.92,1.47.85,2.48,1.54,3.54,2.65.31.33,1.77,2.53,1.53,1.89.69,1.83.29.9.53-.79.14-.98-1.2.64-.29.25,1.16-.5-1.62.8-1.89.91,1.79-.75-.84.15-1.28.24-1.08.24-2.15.5-3.23.73s-2.94.38-5.72.64c-6.46.62-12.92,1.19-19.39,1.7-12.93,1.04-25.88,1.86-38.84,2.51-6.74.34-12.5,5.5-12.5,12.5,0,6.51,5.72,12.84,12.5,12.5,22.59-1.13,45.59-2.02,67.98-5.33,9.29-1.37,18.97-5.24,23.97-13.71,6-10.18,2.87-22.23-4.66-30.59-13.88-15.42-37.64-17.19-56.99-17.2-10.02,0-20.1.46-30.09-.58-1.66-.17-3.12-.36-4.84-.72-2.45-.52-1.8-.25-3.28-.98-3.28-1.63-.51-.51-.51-.35-.04-1.04,4.97,9.82,1.06,7.36.65.41-2.02.56.46,0,1.23-.28,2.64-1.56,3.79-2.21,20.81-11.67,43.5-16.54,67.25-13.78,6.72.78,12.5-6.31,12.5-12.5,0-7.41-5.76-11.71-12.5-12.5h0Z"/></svg>