<?xml version="1.0" encoding="UTF-8"?><svg id="Layer_5" xmlns="http://www.w3.org/2000/svg" viewBox="0 0 488.88 471.66"><defs><style>.cls-1{fill:#231f20;}</style></defs><path class="cls-1" d="M6.86,19.09c.84,18.35,3.48,36.7,8.12,54.48,2.34,8.96,5.18,17.78,8.53,26.41,3.11,8.04,6.07,16.96,12.09,23.36,6.61,7.03,16.97,9.91,25.78,5.16,7.68-4.14,11.25-11.93,14.11-19.75,6.53-17.88,12.93-35.81,19.4-53.71h-24.11c2.46,16.2,6.59,32.13,12.59,47.39,5.87,14.94,15.78,30.58,33.88,30.67,16.59.09,26.85-15.61,32.85-29.17s9.15-28.26,10.37-43.3c1.3-16.02.37-32.12-.73-48.13-.46-6.74-5.41-12.5-12.5-12.5-6.41,0-12.96,5.73-12.5,12.5,1.92,27.99,4.51,59.28-8.99,84.49-1.59,2.97-3.29,6.17-5.46,8.76-1.27,1.51-2.36,2.34-3.04,2.35-1.19.02-3.25-1.26-4.74-2.99-1.66-1.94-3.35-5.3-4.51-7.99-6.43-14.97-10.61-32.27-13.12-48.73-.81-5.33-7.04-9.18-12.05-9.18-5.78,0-10.17,3.96-12.05,9.18-5.26,14.57-10.52,29.13-15.78,43.7-1.31,3.64-2.53,7.33-3.95,10.92-.1.26-1.7,4.09-2.03,3.98-.11-.04,1.71-.95,1.97-1.01,1.07-.29,2.14-.1,3.2.59.63.65.63.66,0,.04-.01-.16-.73-.69-1.38-1.75-.72-1.18-1.34-2.4-1.93-3.65-11.86-25.36-17.75-54.29-19.02-82.13-.31-6.75-5.52-12.5-12.5-12.5-6.53,0-12.81,5.72-12.5,12.5h0Z"/><path class="cls-1" d="M226.15,12.07c-14.63-.94-29.3-.8-43.9.58-15.16,1.43-32.84,6.4-35.12,24.2-1.94,15.15,10.79,24.59,22.93,30.38,13.16,6.28,28.42,10.52,41.76,2.22,10.15-6.31,6.51-23.73-6.31-23.29-10.06.34-20.11,1.44-30.01,3.25-8.66,1.58-18.04,3.17-24.16,10.09-5.7,6.45-7.12,16.23-7.95,24.51-.92,9.26,1.26,18.57,7.8,25.47,11.81,12.44,33.45,12.74,49.24,11.11,17.7-1.82,34.92-6.9,52.64-8.37,6.73-.56,12.5-5.34,12.5-12.5,0-6.33-5.73-13.06-12.5-12.5-14.63,1.22-28.88,4.52-43.31,7.01-11.84,2.05-24.79,3.5-36.48-.05-1.43-.43-3.51-1.46-3.92-1.87-1.07-1.09-1.04-1.4-1.18-2.73-.27-2.51.11-4.87.53-7.05.28-1.5.6-3.01.97-4.49.21-.84,1.15-2.71.57-2.24-1.45,1.17,2.85-.38,3.44-.52,3.42-.81,6.87-1.5,10.34-2.09,7.1-1.21,14.28-1.78,21.48-2.02l-6.31-23.29c-2.11,1.31-3.75,1.64-6.46,1.19-3.75-.62-7.4-2.11-10.79-3.77-2.77-1.35-7.26-3.66-8.8-4.97-.19-.16-1.89-2.01-1.96-1.98.18-.08.68.77.62.9-.02.05-.1,1.17-.08,1.22.35.84-1.79.4-.08.11.26-.04,1.36-1.08,2.46-1.5,1.7-.65,3.57-.91,5.36-1.15,5.01-.67,10.12-.92,15.17-1.16,10.5-.51,21.02-.37,31.51.3,6.74.43,12.5-6.05,12.5-12.5,0-7.13-5.74-12.07-12.5-12.5h0Z"/><path class="cls-1" d="M251.17,39.85c17.25,17.07,32.82,35.62,46.44,55.71,6.54-5.05,13.09-10.1,19.63-15.15-13.02-12.91-26.07-25.8-39.07-38.73-.85-.83-1.69-1.67-2.52-2.51-1.36-1.67-1.44-1.57-.25.3-.03.62-.19,1.71-.1,2.3-.62.76-.39.56.67-.59-.75.35-.45.12.89-.69,1.17-.82,2.5-1.5,3.8-2.09,6.62-2.97,14.93-4.94,22.29-6,7.9-1.14,16.1-1.13,24.03-.34,1.46.14,2.9.3,4.34.6,1,.18,1.98.44,2.94.77-1.17-.25-1.96-.9-2.39-1.95.04.07-.99-3.1-.53-2.7.27.23-.66.9-1.16,1.28-5.68,4.35-14.03,6.72-20.74,8.83-7.8,2.46-15.89,4.42-24.02,5.43-6.17.77-11.48,4.16-12.28,10.84-.72,6.04,2.82,12.1,8.95,13.71,14.1,3.71,28.73,4.39,43.24,4.67,13.33.25,26.79.03,39.68,3.25,3.15.79,6.33,1.69,9.33,2.94,1.02.42,2.06.91,3.04,1.43.8.4,1.58.85,2.33,1.34l-1.69-1.74c-1.38-2.91-1.06-5.46.95-7.64-.97.91-1.18,1.14-.62.7,1.51-.38-3.21,1.68-1.81,1.04-2.04.93-7.07,2.14-10.12,2.94-15.03,3.93-30.28,5.96-45.8,6.28s-16.12,25.34,0,25c20.14-.42,40.52-3.32,59.8-9.24,8.58-2.63,17.74-7.32,20.73-16.47,3.27-10.02-2.31-19.1-11.16-23.78-31.62-16.72-68.03-6.05-101.26-14.8-1.11,8.18-2.22,16.37-3.32,24.55,18.68-2.32,37.3-6.98,54.08-15.75,8.9-4.65,16.05-12.67,16.5-23.1.46-10.78-6.99-19.36-17.29-21.75-17.88-4.16-38-2.55-55.51,2.49-8.74,2.52-17.49,5.73-24.39,11.83-7.78,6.87-10.83,18.15-5.69,27.52,2.46,4.49,6.54,8.02,10.13,11.58l11.86,11.76c8.14,8.07,16.28,16.14,24.42,24.21,9.79,9.71,27.81-3.09,19.63-15.15-14.79-21.82-31.6-42.23-50.35-60.77-11.45-11.33-29.14,6.34-17.68,17.68h0Z"/><path class="cls-1" d="M65.61,240.72c-6.23-15.19-16.58-27.97-23.21-42.89-2.58-5.82-4.2-12.05-4.07-18.31.11-5.37,2.42-10.45,5.57-13.52,1.92-1.87,2.14-1.98,4.95-3.53,2.27-1.26,3.8-1.86,7.16-2.8,6.09-1.71,10.23-2.09,17.04-2.11,2.9,0,5.9-.02,8.78.41-1.73-.26,1.4.37,1.87.49.81.21,1.7.44,2.48.76-1.21-.5-.11.02.44.31,1.8.96.24.58-.04-.48.71,2.69.59.12.47-.19.05.11-.2,1.12-.4,1.56-.71,1.57-1.43,2.45-2.62,3.7-10.43,10.98-27.28,15.61-42.02,15.37-16.09-.26-16.1,24.73,0,25,20.69.34,41.87-6.73,57.45-20.53,7.84-6.94,13.63-17.21,12.14-27.92s-9.87-18.22-20-21.35c-16.06-4.96-36.62-2.37-51.72,4.39-18.01,8.07-28.29,26.49-26.29,46.08,1.21,11.81,5.42,22.67,11.22,32.96,5.47,9.71,12.44,18.87,16.69,29.23,2.56,6.24,8.31,10.67,15.38,8.73,5.91-1.62,11.31-9.09,8.73-15.38h0Z"/><path class="cls-1" d="M131.54,216.17c-2.67-.99-4.76-1.72-7.1-3.16-2.82-1.73.08.2-2.32-1.76.92.75-1.6-1.38-.63-.52-.82-.72.01-2.05-.46-.28.16-.59,1.35-2.29,1.75-2.82,1.36-1.78,3.06-3.54,4.68-5.16,3.41-3.42,7.56-6.62,11.58-7.91,2.46-.79,3.93-1.14,6.84-.68-2.04-.32,1.8.71,1.81.72-1.64-.64,1.69,1.01,1.74,1.04,1.83,1.16-.04-.33,1.64,1.3.24.24,2.56,2.83,1.53,1.5.68.88,1.22,1.87,1.76,2.83.33.58.63,1.17.9,1.78-.36-.73-.39-.69-.09.11.17.59.75,3.57.7,2.85-.1-1.19-.06,1.97-.09,2.27.17-2.03-.38,1.36-.52,1.82.63-1.95-.55,1.09-.8,1.54-1.11,1.98-4.61,4.71-7.05,5.49-1.19.38-2.41.72-3.65.91,2.15-.34-1.19-.08-1.64-.05-2.15.16.2.22-.98-.04-.51-.11-4.09-1.4-2.31-.57-6.11-2.85-13.47-1.72-17.1,4.48-3.17,5.41-1.66,14.24,4.48,17.1,14.26,6.65,30.07,4.37,42.15-5.7s15.34-27.22,9.01-41.62-20.48-23.83-35.83-22.8c-16.89,1.13-30.91,12.82-40.34,26.15-6.2,8.76-6.6,20.17-.56,29.16s14.85,12.62,24.26,16.1c6.33,2.34,13.7-2.62,15.38-8.73,1.92-6.99-2.38-13.02-8.73-15.38h0Z"/><path class="cls-1" d="M174.56,179.49c11.86,15.61,23.71,31.22,35.57,46.83,7.64,10.06,21.95,6.53,23.29-6.31.92-8.73-2.15-16.86-4.35-25.13-1.56-5.88-1.4-9.41,1.4-12.32,3.76-3.91,8.9-5.69,15.11-6.94,9.19-1.85,18.61-2.04,27.75-4.27,15.63-3.8,9.01-27.91-6.65-24.11-19.05,4.63-40.51,2.5-54.81,18.63-6.91,7.8-9.81,17.46-8.44,27.78,1.2,9.01,5.89,17.75,4.98,26.35,7.76-2.1,15.53-4.21,23.29-6.31-11.86-15.61-23.71-31.22-35.57-46.83-4.08-5.37-10.78-8.18-17.1-4.48-5.29,3.09-8.59,11.69-4.48,17.1h0Z"/><path class="cls-1" d="M305.5,155.99c4.88,13.05,10.15,25.94,15.81,38.67,2.67,6.01,5.44,11.99,8.3,17.91,1.36,2.82,2.74,5.63,4.15,8.44.84,1.68,1.69,3.36,2.55,5.03l.86,1.67c1.16,1.74,1.27,2.14.33,1.2v-6.65l-.46,1.1,8.73-8.73-.61.25h6.65l-.65-.24,5.52,3.21-.48-.5,3.21,5.52-.13-.54c-1.07,4.05-2.14,8.11-3.21,12.16l.42-.36c5.13-4.4,4.52-13.16,0-17.68-5.08-5.08-12.54-4.41-17.68,0l-.42.36c-3.39,2.9-4.21,8.05-3.21,12.16,3.32,13.73,22.99,13.33,26.44-.07,1.62-6.3-1.84-11.8-4.57-17.17-1.99-3.91-3.94-7.84-5.84-11.79-7.98-16.54-15.15-33.41-21.58-50.61-2.36-6.32-8.45-10.63-15.38-8.73-6.07,1.67-11.11,9.02-8.73,15.38h0Z"/><path class="cls-1" d="M303.69,206.63c35.07-9.22,70.65-16.34,106.57-21.31,6.69-.93,10.35-9.48,8.73-15.38-1.98-7.21-8.66-9.66-15.38-8.73-35.92,4.97-71.5,12.09-106.57,21.31-15.55,4.09-8.95,28.21,6.65,24.11h0Z"/><path class="cls-1" d="M77.67,358.67c-9.17-7.89-17.82-16.34-25.84-25.41-3.65-4.13-7.38-8.33-10.58-12.83-.73-1.02-2.71-5.5-2.81-.99-.01.58-1.39.47.13.03.99-.29,2.56-1.58,3.38-2.06,19.56-11.36,41.72-18.15,64.28-19.74,6.74-.47,12.5-5.41,12.5-12.5,0-6.4-5.73-12.97-12.5-12.5-14.96,1.05-29.83,3.7-44.07,8.45-7.46,2.49-14.78,5.5-21.86,8.9-6.4,3.07-13.28,6.36-18.65,11.09-6.55,5.77-9.05,14.59-6.52,22.96,2.32,7.64,8.17,13.93,13.14,19.97,9.62,11.68,20.26,22.44,31.72,32.31,5.11,4.4,12.65,5.02,17.68,0,4.5-4.5,5.14-13.25,0-17.68h0Z"/><path class="cls-1" d="M48.74,354.8c21.53.81,43.1-1.31,64.12-6,6.59-1.47,10.46-9.1,8.73-15.38-1.86-6.79-8.77-10.21-15.38-8.73-18.93,4.23-38.1,5.84-57.48,5.11-6.75-.25-12.5,5.93-12.5,12.5,0,6.98,5.73,12.25,12.5,12.5h0Z"/><path class="cls-1" d="M151.8,343.64c-.86-.94-2.2-2.83-2.76-4.02s-1.43-4.33-1.77-6.39c.31,1.89-.14-2.34-.14-2.28-.05-1.2-.04-2.39,0-3.59.11-3.18.11-3.22.68-6.09.48-2.4,1.09-4.77,1.81-7.11.43-1.38.89-2.76,1.41-4.11.56-1.47.25-.72.69-1.58.23-.45.94-2.69.68-1.6,1.01-1.04,1.26-1.31.76-.81-.51.56-1.22.81-2.1.74.02-.15,2.97,1.58,3.7,2.13,7.52,5.7,14.36,15,13.16,23.82.23-1.67-.3.74-.48,1.28-.32.98.25-.19-.62,1.36.01-.03-2.31,3.16-1.2,1.89.04-.05-2.68,2.62-1.46,1.65-.85.67-1.84,1.25-2.81,1.72q-.78.4,0,0l-1.23.36c-1.38.31-1.66.36-.84.17.82-.16.53-.2-.86-.12,1.78.94-1.29-.58-1.71-.73-6.33-2.36-13.7,2.63-15.38,8.73-1.92,7,2.38,13.01,8.73,15.38,14.28,5.33,29.27-2.84,37.27-14.69,8.61-12.76,6.49-29.64-1.06-42.34-7.55-12.71-22.41-27.63-38.46-25.22s-21.98,20.21-24.38,33.89c-2.86,16.28-.79,32.65,10.69,45.24,4.55,4.99,13.06,4.62,17.68,0,4.97-4.97,4.56-12.67,0-17.68h0Z"/><path class="cls-1" d="M183.73,283.77c14.84,25.55,29.68,51.1,44.52,76.65,8.08,13.91,29.69,1.34,21.59-12.62-14.84-25.55-29.68-51.1-44.52-76.65-8.08-13.91-29.69-1.34-21.59,12.62h0Z"/><path class="cls-1" d="M258.18,306.35c5.94,15.97,13.37,31.25,22.64,45.55,3.67,5.66,11.09,8,17.1,4.48,5.63-3.29,8.17-11.41,4.48-17.1-8.08-12.47-14.94-25.65-20.12-39.58-2.35-6.32-8.46-10.63-15.38-8.73-6.08,1.67-11.09,9.02-8.73,15.38h0Z"/><path class="cls-1" d="M233.36,273.32c5.79,4.3,12.71,6.21,19.81,6.82,6.53.55,12.78-6.14,12.5-12.5-.32-7.25-5.5-11.91-12.5-12.5-1.42-.13-1.22-.1.6.11-.6-.11-1.2-.24-1.79-.39-.72-.19-2.1-.34-2.62-.83,1.43.63,1.73.75.89.35-.41-.2-.82-.41-1.22-.63-1.07-.59-2.07-1.28-3.05-2.01-5.27-3.92-14.19-1.04-17.1,4.48-3.46,6.54-1.14,12.92,4.48,17.1h0Z"/><path class="cls-1" d="M373.07,335.46c-6.87,1.2-15.01,1.65-21.8.61-3.34-.51-7.06-1.4-10.06-2.61-3.36-1.35-7.12-3.79-8.76-5.34-4.91-4.63-7.37-8.88-8.52-15.66.27,1.6-.05-2.07-.06-2.63,0-.27.16-2.96.01-1.62-.13,1.17.18-.92.19-.93.91-3.49,1.19-4.64,3.8-7.37,9.73-10.18,28.78-12.99,42.72-11.02,14.55,2.05,27.45,10.01,34.34,22.77,1,1.86,1.52,3.02,2.02,4.7-.19-.64,1.69-2,.08.09s-5.56,4.04-8.82,5.64c-8.3,4.07-17.56,5.93-26.77,6.08-16.07.25-16.12,25.26,0,25,13.22-.21,25.86-3.2,37.84-8.75,10.91-5.06,22.3-13.57,22.76-26.72.42-11.94-7.82-24.23-15.78-32.49s-17.44-13.85-27.89-17.58c-22.31-7.96-52.31-5.14-71.66,9.1-9.97,7.33-16.36,17.42-17.63,29.82-1.08,10.56,2.35,21.83,8.34,30.51,16.32,23.63,46,27.09,72.31,22.51,6.66-1.16,10.4-9.32,8.73-15.38-1.93-7.03-8.7-9.89-15.38-8.73h0Z"/></svg>